<?xml version="1.0" standalone="no"?>
<!DOCTYPE svg PUBLIC "-//W3C//DTD SVG 20010904//EN"
 "http://www.w3.org/TR/2001/REC-SVG-20010904/DTD/svg10.dtd">
<svg version="1.0" xmlns="http://www.w3.org/2000/svg"
 width="200.000000pt" height="200.000000pt" viewBox="0 0 200.000000 200.000000"
 preserveAspectRatio="xMidYMid meet">
<metadata>
Created by potrace 1.11, written by Peter Selinger 2001-2013
</metadata>
<g transform="translate(0.000000,200.000000) scale(0.100000,-0.100000)"
fill="#000000" stroke="none">
<path d="M965 1884 c-9 -9 -14 -25 -12 -35 3 -11 1 -19 -4 -19 -5 0 -9 -7 -9
-15 0 -8 4 -15 8 -15 5 0 9 -17 9 -37 3 -117 3 -120 18 -120 17 0 17 0 16 94
-2 62 1 72 14 67 10 -4 15 0 15 10 0 9 -7 16 -15 16 -8 0 -15 9 -15 20 0 12 7
20 16 20 20 0 13 24 -8 28 -9 2 -23 -5 -33 -14z"/>
<path d="M850 1835 c0 -8 -5 -15 -10 -15 -6 0 -5 -11 4 -28 8 -15 17 -53 21
-85 8 -60 17 -71 55 -65 l22 3 -21 24 c-12 13 -21 31 -21 40 0 9 -3 34 -7 55
-4 28 -3 37 5 32 8 -5 12 1 12 14 0 12 -5 18 -10 15 -6 -3 -13 1 -16 9 -8 20
-34 21 -34 1z"/>
<path d="M1078 1822 c-10 -2 -18 -7 -19 -10 0 -4 -2 -14 -3 -22 -13 -64 -14
-129 -3 -138 21 -16 74 -22 86 -9 20 25 35 152 18 165 -15 12 -56 19 -79 14z
m47 -91 c-7 -60 -16 -78 -35 -66 -8 5 -10 25 -6 62 7 65 12 74 32 66 13 -5 14
-16 9 -62z"/>
<path d="M771 1801 c-12 -8 -12 -18 2 -68 21 -72 21 -93 3 -93 -8 0 -22 29
-35 74 -17 56 -26 73 -37 69 -17 -6 -17 -1 0 -65 23 -86 34 -108 54 -108 25 0
82 20 81 28 0 4 -13 44 -27 89 -21 65 -30 81 -41 74z"/>
<path d="M575 1782 c-29 -7 -65 -33 -65 -48 0 -7 21 -52 47 -99 52 -95 70
-104 119 -62 l26 23 -22 45 c-28 55 -25 52 -49 44 -23 -7 -29 -35 -8 -35 16 0
40 -47 32 -61 -14 -22 -33 -4 -72 70 -35 65 -39 80 -27 85 25 10 34 7 34 -9 0
-17 2 -17 23 -9 16 6 12 38 -7 52 -6 5 -20 6 -31 4z"/>
<path d="M1207 1717 c-30 -89 -24 -106 38 -110 l40 -2 25 72 c22 66 23 74 9
88 -8 9 -31 18 -51 21 l-35 6 -26 -75z m76 37 c13 -5 13 -13 -5 -65 -18 -54
-38 -73 -52 -51 -5 8 17 93 29 112 7 12 9 12 28 4z"/>
<path d="M1474 1729 c-9 -18 -19 -27 -23 -22 -9 15 -44 24 -57 15 -15 -10 -74
-119 -74 -137 0 -22 75 -58 87 -42 28 36 113 199 108 207 -11 18 -24 11 -41
-21z m-34 -50 c0 -13 -43 -93 -54 -101 -6 -4 -15 -3 -21 3 -14 14 44 119 62
112 7 -3 13 -9 13 -14z"/>
<path d="M919 1482 c-35 -24 -22 -35 35 -28 68 7 103 -14 92 -57 -6 -25 -26
-38 -26 -17 0 5 -8 14 -19 19 -14 8 -23 5 -40 -10 -11 -11 -21 -15 -21 -10 0
6 -7 8 -15 4 -19 -7 -14 -28 6 -28 8 0 13 -8 11 -18 -2 -14 5 -17 43 -17 40 0
45 3 46 23 0 12 3 16 6 10 8 -20 39 3 52 37 7 20 7 39 1 56 -18 47 -123 69
-171 36z"/>
<path d="M918 1423 c-19 -5 -24 -18 -9 -27 14 -9 41 4 41 20 0 14 -3 15 -32 7z"/>
<path d="M872 1383 c5 -25 28 -28 28 -4 0 12 -6 21 -16 21 -9 0 -14 -7 -12
-17z"/>
<path d="M852 1330 c0 -16 4 -30 9 -30 5 0 9 7 9 15 0 8 4 15 10 15 5 0 7 7 4
15 -10 26 -31 16 -32 -15z"/>
<path d="M1135 1309 c-4 -11 -36 -14 -165 -14 l-160 0 0 -50 c0 -27 4 -54 8
-60 10 -14 342 -15 342 -1 0 6 5 3 11 -7 13 -22 29 -13 30 16 0 12 3 16 6 9
10 -25 23 0 23 45 0 35 -3 44 -14 40 -8 -3 -16 2 -19 14 -9 34 -27 20 -29 -23
-1 -41 -1 -41 -5 -8 -5 40 -20 61 -28 39z"/>
<path d="M775 1290 c-3 -5 -12 -7 -20 -3 -16 5 -18 -2 -17 -65 1 -41 7 -49 26
-33 11 9 14 8 12 -5 0 -9 5 -19 12 -21 9 -4 12 14 12 66 0 64 -9 87 -25 61z"/>
<path d="M840 1150 c0 -5 7 -10 16 -10 8 0 12 5 9 10 -3 6 -10 10 -16 10 -5 0
-9 -4 -9 -10z"/>
<path d="M965 1150 c-25 -4 -30 -10 -27 -30 l3 -25 -18 28 c-22 34 -43 35 -43
2 0 -14 4 -25 9 -25 5 0 13 -9 16 -21 4 -12 12 -18 21 -15 12 4 14 -15 14
-109 0 -126 2 -129 58 -95 34 21 35 26 33 118 -1 32 2 51 8 48 5 -4 12 -2 16
4 3 6 -1 13 -10 16 -9 4 -15 14 -14 23 7 76 -6 93 -66 81z"/>
<path d="M182 1073 c37 -2 100 -2 140 0 40 1 10 3 -67 3 -77 0 -110 -1 -73 -3z"/>
<path d="M1672 1073 c37 -2 100 -2 140 0 40 1 10 3 -67 3 -77 0 -110 -1 -73
-3z"/>
<path d="M1057 1023 c-15 -14 -6 -31 13 -26 11 3 20 12 20 19 0 14 -22 19 -33
7z"/>
<path d="M189 1010 c-4 -27 -5 -77 -1 -87 2 -7 14 -13 26 -13 19 1 19 2 4 11
-10 5 -18 17 -18 25 0 8 4 13 9 9 5 -3 12 -1 16 5 3 5 -1 10 -10 10 -10 0 -15
6 -13 18 2 9 10 16 16 15 7 -2 12 1 12 6 0 10 -39 11 -41 1z"/>
<path d="M253 1013 c-19 -7 -16 -53 2 -53 9 0 15 -9 15 -21 0 -19 -2 -20 -17
-8 -14 12 -16 12 -11 -1 8 -24 43 -18 46 8 3 17 -2 25 -17 29 -11 3 -17 11
-14 18 2 8 11 11 19 8 8 -3 14 -1 14 5 0 12 -21 21 -37 15z"/>
<path d="M307 996 c4 -12 6 -36 6 -53 -1 -18 2 -33 8 -33 5 0 9 20 9 45 0 28
5 45 12 45 19 0 -1 14 -22 15 -16 1 -19 -2 -13 -19z"/>
<path d="M1665 1009 c-4 -6 -4 -13 0 -17 3 -3 10 0 15 8 8 12 10 11 10 -6 0
-11 -7 -29 -15 -40 -21 -28 -18 -34 13 -33 15 1 20 3 10 6 -15 4 -15 7 -2 39
8 19 12 39 9 44 -8 13 -32 13 -40 -1z"/>
<path d="M1720 971 c0 -31 5 -51 13 -54 27 -9 37 6 37 54 0 46 -2 49 -25 49
-23 0 -25 -3 -25 -49z m35 -8 c0 -15 -5 -28 -10 -30 -8 -2 -10 22 -6 72 2 22
18 -18 16 -42z"/>
<path d="M1789 993 c4 -16 6 -38 5 -50 -1 -13 3 -23 7 -23 5 0 9 23 9 50 0 37
-4 50 -14 50 -11 0 -13 -7 -7 -27z"/>
<path d="M1826 1012 c-9 -15 0 -42 20 -56 11 -8 15 -18 10 -23 -5 -4 -11 -2
-13 5 -3 6 -9 12 -14 12 -4 0 -6 -7 -2 -16 9 -24 48 -13 46 14 0 12 -1 33 -2
47 -1 18 -7 25 -20 25 -11 0 -22 -4 -25 -8z m31 -22 c-1 -11 -5 -20 -9 -20 -4
0 -8 9 -8 20 0 11 4 20 9 20 6 0 9 -9 8 -20z"/>
<path d="M1081 991 c-8 -5 -10 -14 -7 -20 8 -13 46 -15 46 -2 0 16 -25 30 -39
22z"/>
<path d="M677 963 c-5 -9 -30 -119 -45 -195 -5 -27 -6 -48 -2 -48 4 0 20 10
35 22 23 18 30 19 33 8 7 -19 92 -99 115 -106 9 -3 17 -14 17 -24 0 -11 9 -24
20 -30 11 -6 18 -15 15 -21 -4 -5 -3 -15 2 -21 4 -7 8 -17 8 -23 0 -5 12 -11
28 -13 26 -3 37 11 17 23 -5 3 -7 12 -4 19 3 8 -3 17 -14 20 -11 4 -22 15 -25
26 -4 17 1 16 39 -10 24 -17 50 -40 59 -53 16 -22 16 -22 30 -3 8 11 15 23 15
26 0 4 30 22 67 41 64 32 154 110 179 154 12 20 12 20 36 -2 42 -40 44 -36 23
72 -11 58 -35 134 -45 140 -10 6 -20 -7 -85 -109 -25 -38 -42 -72 -39 -77 2
-4 16 -4 31 2 14 5 28 7 31 4 9 -9 -69 -83 -97 -93 -51 -18 -91 19 -91 84 0
28 -12 29 -59 6 -23 -11 -35 -25 -38 -42 -4 -29 -37 -60 -63 -60 -18 0 -108
62 -122 84 -12 18 2 26 29 15 50 -19 45 7 -18 92 -74 102 -76 103 -82 92z"/>
<path d="M1070 932 c0 -10 5 -23 11 -29 8 -8 6 -11 -7 -10 -11 1 -18 -4 -16
-10 1 -7 -5 -13 -13 -13 -9 0 -18 -7 -22 -16 -3 -8 -12 -13 -19 -10 -14 5 -34
-22 -34 -44 0 -8 9 -7 25 4 14 9 30 14 35 11 11 -7 32 30 22 39 -3 4 0 4 9 1
18 -7 52 56 43 80 -8 21 -34 19 -34 -3z"/>
<path d="M350 920 c0 -5 5 -10 10 -10 6 0 10 5 10 10 0 6 -4 10 -10 10 -5 0
-10 -4 -10 -10z"/>
<path d="M1672 873 c37 -2 100 -2 140 0 40 1 10 3 -67 3 -77 0 -110 -1 -73 -3z"/>
<path d="M182 863 c37 -2 100 -2 140 0 40 1 10 3 -67 3 -77 0 -110 -1 -73 -3z"/>
<path d="M930 805 c-7 -8 -16 -12 -21 -9 -12 7 -23 -22 -15 -41 5 -13 12 -10
36 15 30 30 38 50 21 50 -5 0 -14 -7 -21 -15z"/>
<path d="M856 762 c-4 -12 -4 -26 -1 -32 3 -5 1 -10 -6 -10 -10 0 -10 -3 -2
-11 9 -9 16 -8 27 4 20 19 20 28 2 52 -13 18 -14 18 -20 -3z"/>
<path d="M1660 618 c0 -7 15 -23 33 -35 34 -24 26 -30 -19 -13 -17 7 -31 7
-37 1 -9 -9 7 -15 95 -36 15 -4 29 -14 31 -23 3 -15 5 -14 12 2 7 16 0 27 -35
59 -56 48 -80 62 -80 45z"/>
<path d="M321 580 c-35 -21 -58 -40 -52 -44 6 -4 19 -2 30 4 27 14 41 13 41
-3 0 -8 -12 -19 -26 -25 -14 -7 -22 -17 -19 -22 6 -9 32 3 125 59 8 5 11 13 7
17 -4 4 -21 0 -37 -9 -39 -23 -53 -2 -17 25 25 19 36 39 20 37 -5 0 -37 -18
-72 -39z"/>
<path d="M1611 534 c-7 -8 -11 -17 -10 -18 44 -34 99 -64 104 -56 3 5 -12 21
-34 36 -25 16 -38 31 -34 40 7 18 -8 17 -26 -2z"/>
<path d="M378 483 c-18 -15 -36 -32 -40 -38 -8 -12 31 -57 43 -49 14 8 10 24
-6 24 -17 0 -20 16 -4 25 5 4 18 0 28 -9 16 -15 19 -14 39 7 20 21 20 23 2 45
-10 12 -21 22 -23 22 -3 0 -20 -12 -39 -27z m52 -12 c0 -12 -20 -25 -27 -18
-7 7 6 27 18 27 5 0 9 -4 9 -9z"/>
<path d="M923 502 c-17 -11 0 -34 20 -26 9 3 17 12 17 20 0 15 -18 18 -37 6z"/>
<path d="M966 477 c-16 -12 -16 -15 -4 -19 21 -9 46 8 32 22 -7 7 -16 6 -28
-3z"/>
<path d="M1567 472 c-10 -10 -17 -22 -17 -25 0 -13 65 -66 80 -67 18 0 43 37
35 50 -10 16 -28 11 -22 -5 8 -18 -5 -26 -23 -15 -13 8 -13 12 2 26 16 16 15
18 -7 36 -28 22 -28 22 -48 0z m37 -34 c-3 -5 -12 -4 -20 3 -7 6 -11 15 -8 21
3 5 12 4 20 -3 7 -6 11 -15 8 -21z"/>
<path d="M437 402 l-37 -38 23 -28 24 -27 37 41 c40 44 41 56 10 77 -18 11
-24 9 -57 -25z m53 0 c0 -14 -36 -52 -49 -52 -17 0 -13 11 11 37 22 24 38 30
38 15z"/>
<path d="M1525 420 c-3 -5 4 -25 17 -42 l23 -33 -32 23 c-31 22 -54 28 -52 15
1 -14 90 -74 100 -68 14 9 11 21 -20 70 -16 26 -32 41 -36 35z"/>
<path d="M527 359 c-73 -96 -59 -110 17 -17 49 61 53 68 34 67 -7 0 -30 -23
-51 -50z"/>
<path d="M1425 390 c4 -6 11 -8 16 -5 14 9 11 15 -7 15 -8 0 -12 -5 -9 -10z"/>
<path d="M1390 369 c0 -16 80 -129 91 -129 14 0 11 5 -36 78 -38 59 -55 75
-55 51z"/>
<path d="M560 323 c-32 -52 -38 -83 -15 -83 9 0 12 6 9 15 -4 8 7 27 25 46 32
31 39 53 21 64 -5 3 -23 -16 -40 -42z"/>
<path d="M1450 362 c0 -12 63 -92 72 -92 15 0 8 16 -23 58 -29 39 -49 53 -49
34z"/>
<path d="M616 295 c-20 -36 -36 -70 -36 -75 0 -21 16 -8 38 30 12 22 27 40 32
40 14 0 12 -12 -4 -35 -18 -27 -29 -65 -19 -65 12 0 53 73 53 93 0 8 -7 18
-15 21 -12 4 -14 10 -5 25 6 12 6 22 1 25 -5 4 -25 -23 -45 -59z"/>
<path d="M1276 285 c5 -19 2 -25 -10 -25 -19 0 -20 -15 -5 -61 16 -47 23 -52
57 -44 l30 6 -24 61 c-13 34 -24 68 -24 75 0 7 -7 13 -15 13 -11 0 -14 -7 -9
-25z m30 -78 c11 -31 11 -37 0 -37 -8 0 -17 11 -20 24 -3 13 -9 32 -13 41 -4
12 -2 16 7 13 7 -2 19 -21 26 -41z"/>
<path d="M1352 298 c-7 -7 -12 -18 -12 -24 0 -20 41 -84 53 -84 19 0 40 17 43
34 3 21 -12 20 -25 -1 -9 -15 -12 -16 -20 -3 -7 10 -4 18 9 27 16 12 17 18 8
38 -12 27 -37 32 -56 13z m33 -18 c3 -5 3 -15 -1 -21 -6 -11 -23 6 -24 24 0
10 18 9 25 -3z"/>
<path d="M707 273 c-3 -5 -8 -34 -12 -65 -5 -41 -12 -58 -24 -61 -14 -3 -14
-5 2 -12 10 -4 23 -2 31 4 24 20 75 110 65 116 -5 4 -18 -10 -30 -29 -12 -20
-23 -36 -24 -36 -4 0 1 33 10 60 6 18 -9 37 -18 23z"/>
<path d="M843 261 c-3 -12 -9 -21 -13 -21 -4 0 -7 -10 -7 -22 1 -13 -2 -40 -6
-61 -11 -54 10 -47 24 8 6 25 15 45 20 45 5 0 6 12 3 26 -5 21 -4 25 6 19 8
-5 11 -3 8 5 -7 23 -29 23 -35 1z"/>
<path d="M1120 246 c0 -16 -7 -26 -21 -29 -18 -5 -20 -10 -13 -54 9 -62 8 -60
44 -55 28 4 30 7 26 36 -2 17 -8 52 -11 79 -7 49 -25 65 -25 23z m10 -88 c0
-47 -14 -41 -23 10 -5 24 -3 32 8 32 11 0 15 -12 15 -42z"/>
<path d="M885 210 c-3 -5 -4 -10 -2 -10 2 0 1 -18 -3 -40 -8 -43 -3 -50 35
-55 21 -2 25 3 31 34 12 72 9 81 -25 81 -17 0 -33 -4 -36 -10z m45 -38 c0 -15
-4 -34 -10 -42 -8 -13 -10 -13 -15 1 -3 8 -3 26 -1 39 2 14 5 29 5 33 2 21 21
-7 21 -31z"/>
<path d="M991 206 c-7 -8 -11 -34 -9 -58 3 -40 5 -43 36 -46 34 -3 33 -5 36
66 2 46 -38 69 -63 38z m39 -51 c0 -31 -4 -43 -12 -40 -18 7 -18 85 -1 85 9 0
13 -15 13 -45z"/>
</g>
</svg>
